<svg xmlns="http://www.w3.org/2000/svg" viewBox="0 0 300 300"><path d="M112.6 154.46c-.29-.38-.83-.67-1.32-.69 9.23-.15 19.1-.08 28.25-1.14l-.73.43c2.88-3.47-2.77-10.16-2.78-14.99l2.52 2.13c-7.44 2.51-15.76 3.12-23.05 5.83l-.15.06c.02 0-.02-.03-.03-.04.03-.03.11-.16.07-.16-1.53 2.85-1.51 6.85-2.04 10.08-.03-.5-.35-1.18-.75-1.52Zm-3.42 3.55c-1.84-3.57-1.29-13.27 1.58-16.48 8.08-5.28 18.31-5.4 27.62-6.25 1.26-.06 2.34.86 2.51 2.08.75 6.19 7.71 15.29.39 19.88-9.57 2.64-19.78 1.68-29.59 1.5-.86 0-1.87-.16-2.52-.74ZM164.24 157.81c-.28-6.98 6.9-14 7.37-20.59.24-10.1 18.08-1.56 24.47-1.56 6.56 3.45-8.39 13.71-8.6 19.62-2.14 8.63-17.65 5.46-23.24 2.53Zm4.24-2.51c-3.39-4.11 10.07-1.75 12.6-2.28-.45.33-.94 1.16-.93 1.63 2.27-7.32 7.98-13.03 13.48-18.11 4.3 8.24-13.1-.87-18.38 1.04.29.08 1.46-1.84.8-2.52 2.31 4.69-5.45 16.8-7.2 21.81.08-.28.1-1.07-.37-1.57ZM202.3 156.7c-.17-.61-.11-1.44.2-2.04 7.56-12.32 4.94-26.51 22.41-13.74 21.3 14.79-10.12 29.08-22.61 15.78Zm4.67-1.58c.61-.25.31-1.08.85-.81 18.64 6.45 26.09-5.97 5.52-13.15.9.03 2.04-.84 2.29-1.8-2.55 5.92-5.73 11.73-8.67 17.43.23-.45.25-1.2.01-1.67ZM263.86 221c-.42-1.24 2.77-5.58 2.85-5.44-33.72-3.97-18.01 35.61.22 8.26-.93-.84-2.54-1.59-3.07-2.82Zm4.81-1.07c.18-.41.06-.91-.24-1.11 6.24 2.75 1.4 9.49 2.07 7.4-16.99 34.79-51.44-8.28-13.61-15.54 8.72-2.5 21.01 1.29 11.45 11.14.3-.28.61-1.38.33-1.9ZM220.85 215.36c13.08 15.96-12.3 34.24-26.38 24.14-20.16-18.77 9.06-33.64 26.38-24.14Zm-3.78 4.33c-33.12-8.36-26.67 25.85-4.35 13.24 6.95-1.92 5.9-9.24 4.35-13.24ZM141.19 229.26c.26-11.94-14.56-3.42-16.21-.18-1.79 7.51 7.31 12.7 8.2 12.32 8.59.21 9.38-11.99 12.08-12.05-.79.19-2.94 1.43-4.07-.09Zm3.63-3.33c-.8-.97-2.4-.98-3.15-.4 19.24-4.74-1.9 32.98-14.57 19.91-25.51-16.88 20.18-46.3 18.54-17.07.4-.8-.01-2.06-.82-2.44ZM77.57 229.13c-10.46 29.08-40.58 12.95-23.68-8.75 8.62-7.36 29.61-7.15 23.68 8.75Zm-5.93-1.57c4.36-10.34-12.05-5.44-15.69-1.37-5.67 17.49 11.55 14.73 15.69 1.37Z"/><path d="M295.67 248.24c-2.24 1.22-23.15 1.59-36.58 3.37 7.72-1.16 4.03-8.84-.6-5.11-10.84 1.47-27.36 5.84-40.3 3.89-63.23-.93-126.53 10.83-189.61 4.22-6.16-15.72-15.78-35.35-21.38-49.42 93.96-.53 188.56-4.31 282.26-6.67 2.53 16.01-.5 32.12.64 48.22.49 2.79 4.5 2.65 4.79-.17.26-3.88.19-7.94.68-11.78 2.46-12.41 1.05-25.09-1.6-37.16 4.48-1.62 1.26-8.24-2.62-5.54-14.86-.11-30.02.1-45.25.57 3.96-4.67 2.32-16.13 1.41-21.26 0 .06-.01.12-.03.18 1.91-14.39 2.73-28.65 2.25-43.1-.53-3.55 3.52-11.49-1.75-12.32-24.11 3.45-47.9-2.7-72.02-3.08 1.62-3.67 2.48-11.67 2.99-20.51 8.2-.52 16.58-1.07 24.69.29 22.8 2.66 45.06-3.7 67.78-4.15 5.23-1.35 16.96 3.23 17.24-4.75-4.06-14.79-5.74-31.93-16.07-43.93-9.96-8.61-23.34 0-34.29.44-20.3.65-39.68 7.95-60.15 5.95-1.36-.13-2.5.95-2.56 2.3-1.82 21-5.05 43.49-4.21 64.56-95.55 5.27-78.56-31.12-79.47 76.84 11.48 14.93 5.21-64.31 3.23-69.19 14.96-7.99 36.31 1.04 53.14-.56 31.92-2 63.71 3.21 95.63 2.48.76 19.57-1.27 40.79-.62 62.77.05 2.33-2.62 5-2.42 7.21-68.28 3.93-136.23 3.29-204.6 5.14-9 2.07-39.42-6.37-35.44 10.21 7.13 15.01 12.66 32.11 20.59 46.99-5.58 2.24-.89 5.1 3.13 5.51 1.08 1.93 3.95 1.82 4.28.6 72.45 7.1 146.94-2.66 219.21-6.41-2.49 6.59 44.56-.46 49.8-1.42 3.37-1.56 1.24-6.1-2.16-5.19ZM180.59 51.54c19.49 1.23 38.4-5.22 57.69-5.72 9.92.49 21.89-8.11 30.55-1.25 7.51 10.59 8.23 24.98 12.39 37.43-34.26 1-67.58 6.44-101.97 4.15.64-18.89.43-25.27 1.35-34.61Z"/></svg>