<svg xmlns="http://www.w3.org/2000/svg" id="Calque_1" data-name="Calque 1" viewBox="0 0 426 433"><defs><style>.cls-2{fill:#fedc0b}.cls-4{fill:#191919}</style></defs><path d="M210.14 111c-17.78 1.48-46.81 35.85-18.67 78.52-.59 3.85-20.74 57.48-37.93 68.74-6.22 6.52 69.33 31.41 93.93 11.56 5.63-53.33-9.19-61.04 54.81-62.52 11.26-.89 48-57.78-1.19-57.19-24.89-.59-50.96-51.26-90.96-39.11Z" class="cls-2"/><g id="contours_logo" data-name="contours logo"><path d="M294.22 36.79c58.55 46.13 71.1 135.13 21.49 192.28-17.04 20.23-39.29 33.55-63.35 40.15 1.31-13.96.86-27.87 2.35-41.66.52-3.6 1.16-8.87 3.41-11.49 4.96-1.52 12.83-1.26 17.95-1.58 6.65-.26 13.37-.74 20.12-1.86 16.37-2.57 27.24-8.94 31.4-25.83 1.7-7 3.95-13.08 3.88-20.51.16-8.2-5.44-15.92-13.14-18.49-10.55-3.74-19.69-2.36-29.44-5.5-2.26-.71-5.64-1.81-7.04-3.37-3-4.15-8.15-10.23-12.74-14.27-9.55-8.82-21.67-15.36-34.69-16.94-6.23-.83-12.56-.5-18.65.59-5-1.33-10.07-2.44-15.17-3.3-12.52-1.85-34.43-4.81-46.53.88-1.98-.42-3.99-.77-6.03-.99-12.17-1.25-25.35 1.45-34.22 10.59-8.31 8.01-10.66 22.82.99 29.33 1.74.92 3.39 1.54 5.03 2.01-3.47 6.68-3.59 14.53-2.72 21.86.37 1.73.54 3.87 1.22 5.69-.36-.06-.72-.09-1.07-.07-1.7.15-2.76 1.4-3.84 2.48-4.24 4.3-4.71 12.7.65 16.44 2.05 1.52 4.24 2.08 6.28 2.21-.57 2.42-1.77 4.69-1.05 7.95.22 1.5 1.6 3.57 2.39 4.44.06.34.12.94.09 1.46l-.06.78c-.01.08-.02.17-.02.16 0 .02.03-.17.34-.55l-.28 3.7c1.52 3.13 3.07 6.82 5.74 10.2 6.96 9.23 19.69 10.22 30.2 7.13 1 4.72 1.83 9.51 2.08 14.32.12 1.48.11 2.96.05 4.47-2.58 3.2-5.44 6.15-8.66 8.72-8.03-4.21-15.69-9.24-22.83-15.12-73.11-58.19-70.23-173.58 13.29-220.72C187.65-3.79 247.68 1.75 289.75 33.29 231.36-10.91 143.68-5.32 95.52 52.05c-52.42 60.56-39.29 154.81 22.72 203.63 61.34 50.05 155.51 42.69 203.72-21.57 46.88-60.87 31.62-150.69-27.74-197.31Zm-79.72 77.05c6.97 2.72 16.39 9.17 20.47 16.55 9.23 15.23 5.09 36.18-5.74 49.42-4.47 5.38-10.26 9.85-17.25 9.53-34.99-1.58-36.97-42.51-20.04-65.46 4.76-6.37 10.64-10.74 17.88-11.26 1.57.39 3.13.8 4.68 1.21Zm-94.26 80.83c.11-.07.19-.12.2.11l-.2-.11Zm64.98 19.94c1.16-2.98 2.33-5.55.96-8.94l-1.14-.45c-2.91 1.92-3.68 4.66-4.82 7.26-1.12 2.61-2.26 5.21-3.46 7.78-3.62 7.35-7.28 15.05-11.79 22.08.32-1.33.58-2.67.77-4 .66-4.28.62-8.62.3-12.91l-.05-.84c-.03-.33 0-.43 0-.54.11-2.98-2.9-5.32-5.77-4.44-6.64 1.54-12.95 5.68-19.88 4.42-6.28-1.24-9.67-6.85-12.21-12.38.53-1.85.3-3.75-.2-5.79-.18-.77-.94-2.04-1.54-2.48-1.76-1.39-1.88-2.49-1.42-5.14.45-2.13.82-5.3-.89-7.26-.29-.46-1-.6-1.49-.78-1.78-.21-3.5-.68-4.67-1.54-2.78-1.85-2.27-5.97-.42-8.51 1.08-1.42 2.51-2.71 4.06-2.32 1.25.16 1.75-1.3 1.31-2.21-.07-.18-.18-.27-.14-.43.07-.97.8-2.25.45-3.15-.6-4.06-.4-8.43.19-12.49.57-3.95 1.21-7.74 2.8-11.19.02-.05.04-.08.06-.12.85.17 1.71.34 2.6.55 5.59 1.06 11.3 2.12 17.05 2.45 3.56-.13 6.92-2.43 9.99-4.03.05-.05.16 0 .59.3l-.87-.86c-1.48 1.1-4.16.87-6.03.85-6.65-.41-13.2-1.88-19.68-3.41-1.29-.37-2.64-.68-4-1-.08-.28-.19-.56-.51-.61-.6-.11-1.14-.06-1.64.08-2.22-.57-4.39-1.26-6.27-2.33-8.08-4.65-5.34-15.27.53-20.71 2.96-2.97 6.68-5.16 10.65-6.62 8.01-2.94 16.91-2.9 25.35-1.21.64.12 1.36-.04 1.9-.47 1.47-1.04 3.91-1.78 6.25-2.24 12.87-2.13 26.07-.95 38.91 1.65-15.52 7.51-23.27 30.55-23.6 46.77-.71 13.22 2.99 27.66 14.3 35.96 16.26 11.02 33.76 8.63 45.65-6.93 12.85-16.81 15.79-42.04 3.47-59.86-4.05-6.06-9.71-10.78-16.04-14.25 21.42.08 38.59 13.39 50.58 31.52 3.31 3.87 6.86 4.99 11.02 6.49 6.51 2.16 13.71 3.07 20.19 3.94 12.56 1.83 17.75 6.64 14.47 19.39-4.39 18.31-5.82 26.2-26.56 29.3-6.12.95-12.49 1.39-18.96 1.76-6.59.4-15.14.26-21.44 2.59-10.07 5.13-9 25.24-9.64 34.78-.26 9.67-.35 19.15-1.2 28.33-.36.36-.98.88-1.84 1.32 0 0-.02 0-.02.01-28.37 5.3-58.46 1.62-85.03-10.9 14.17-10.99 22.54-30.29 28.83-46.22Z" class="cls-4"/><path d="M289.75 33.29c1.51 1.14 3.01 2.29 4.47 3.5-1.47-1.2-2.96-2.36-4.47-3.5Z" class="cls-4"/></g><path id="fond_texte" d="M242.92 322.79h176.79v34.8H242.92z" class="cls-2" data-name="fond texte"/><path d="M27.35 360.76H6.29v-40.88h6.83v33.32c0 1.12.78 1.85 2.02 1.85h12.21v5.71ZM49.75 360.76H29.98v-40.94h19.77v5.82H37.77c-.73 0-1.4.78-1.4 1.46v11.03c0 .67.56 1.4 1.29 1.4h9.86v6.38h-9.8c-.78 0-1.34.67-1.34 1.51v5.54c0 .62.34 1.4 1.29 1.4h12.1v6.38ZM76.35 350.96c0 6.66-3.53 10.81-12.32 10.81-9.46 0-11.98-2.63-11.98-12.32h6.61c0 4.59.5 6.1 5.38 6.1 4.48 0 5.43-1.68 5.43-4.7 0-2.07-.28-3.3-4.31-6.1l-3.75-2.63c-4.7-3.3-9.35-5.71-9.35-12.71 0-5.94 2.97-10.36 12.15-10.36s11.76 2.52 11.76 11.59h-6.5c0-5.04-1.9-5.43-5.43-5.43-3.98 0-5.21 1.57-5.21 4.26 0 1.9.56 3.19 5.71 6.55l4.26 2.8c3.64 2.41 7 5.54 7.45 9.86.06.78.11 1.57.11 2.3ZM117.28 349.28c-.67 10.64-3.53 12.49-11.7 12.49-9.91 0-11.93-3.02-11.93-21.39 0-16.24 2.02-21.34 12.04-21.34 8.34 0 10.86 2.02 11.59 11.82h-6.5c0-4.93-1.74-5.43-5.21-5.43-3.92 0-5.54.67-5.54 14.95s1.68 14.95 5.54 14.95 5.15-1.12 5.15-6.05h6.55ZM143.15 360.76h-6.38v-13.72c0-.67-.22-1.12-1.01-1.12h-7.34c-.5 0-1.01.56-1.01 1.12v13.72h-6.89v-40.88h6.89v18.76c0 .56.39 1.06.9 1.06h7.45c.62 0 1.01-.34 1.01-1.18v-18.65h6.38v40.88ZM150.6 326.49c-2.02 0-3.7-1.62-3.7-3.7s1.68-3.7 3.7-3.7 3.75 1.62 3.75 3.7-1.68 3.7-3.75 3.7Zm3.19 34.27h-6.38v-31.92h6.38v31.92ZM178.15 360.76h-19.77v-40.94h19.77v5.82h-11.98c-.73 0-1.4.78-1.4 1.46v11.03c0 .67.56 1.4 1.29 1.4h9.86v6.38h-9.8c-.78 0-1.34.67-1.34 1.51v5.54c0 .62.34 1.4 1.29 1.4h12.1v6.38ZM205.14 360.76h-6.38l-10.53-24.3c-.06-.11-.17-.17-.22-.17-.11 0-.22.06-.22.22v24.25h-6.38v-40.88h6.38l10.53 24.58c.06.11.17.22.28.22.06 0 .17-.11.17-.22v-24.58h6.38v40.88ZM232.75 350.96c0 6.66-3.53 10.81-12.32 10.81-9.46 0-11.98-2.63-11.98-12.32h6.61c0 4.59.5 6.1 5.38 6.1 4.48 0 5.43-1.68 5.43-4.7 0-2.07-.28-3.3-4.31-6.1l-3.75-2.63c-4.7-3.3-9.35-5.71-9.35-12.71 0-5.94 2.97-10.36 12.15-10.36s11.76 2.52 11.76 11.59h-6.5c0-5.04-1.9-5.43-5.43-5.43-3.98 0-5.21 1.57-5.21 4.26 0 1.9.56 3.19 5.71 6.55l4.26 2.8c3.64 2.41 7 5.54 7.45 9.86.06.78.11 1.57.11 2.3ZM273.52 349.61c0 8.29-2.69 12.15-12.15 12.15s-11.93-3.14-11.93-13.55v-.56h6.38v.45c0 5.71 1.74 7.22 5.77 7.22 4.26 0 5.38-2.24 5.38-5.77v-29.74h6.55v29.79ZM303.92 360.76h-6.66l-2.07-9.18c-.06-.45-.39-.62-.78-.62h-9.46c-.34 0-.73.22-.78.5l-2.02 9.35h-6.44l9.41-40.94h9.8l9.02 40.88Zm-14-32.82c-.06-.11-.11-.17-.22-.17s-.22.06-.22.17l-3.92 17.42c0 .17.06.5.5.5h7.28c.39 0 .56-.22.56-.56l-3.98-17.36ZM329.4 341.66c0 17.58-2.24 20.1-12.04 20.1s-11.93-2.91-11.93-20.1v-21.84h6.38v21.95c0 12.49 1.57 13.55 5.54 13.55s5.6-.84 5.6-13.55v-21.95h6.44v21.84ZM356.84 360.76h-6.38l-10.53-24.3c-.06-.11-.17-.17-.22-.17-.11 0-.22.06-.22.22v24.25h-6.38v-40.88h6.38l10.53 24.58c.06.11.17.22.28.22.06 0 .17-.11.17-.22v-24.58h6.38v40.88ZM380.53 360.76h-19.77v-40.94h19.77v5.82h-11.98c-.73 0-1.4.78-1.4 1.46v11.03c0 .67.56 1.4 1.29 1.4h9.86v6.38h-9.8c-.78 0-1.34.67-1.34 1.51v5.54c0 .62.34 1.4 1.29 1.4h12.1v6.38ZM407.13 350.96c0 6.66-3.53 10.81-12.32 10.81-9.46 0-11.98-2.63-11.98-12.32h6.61c0 4.59.5 6.1 5.38 6.1 4.48 0 5.43-1.68 5.43-4.7 0-2.07-.28-3.3-4.31-6.1l-3.75-2.63c-4.7-3.3-9.35-5.71-9.35-12.71 0-5.94 2.97-10.36 12.15-10.36s11.76 2.52 11.76 11.59h-6.5c0-5.04-1.9-5.43-5.43-5.43-3.98 0-5.21 1.57-5.21 4.26 0 1.9.56 3.19 5.71 6.55l4.26 2.8c3.64 2.41 7 5.54 7.45 9.86.06.78.11 1.57.11 2.3ZM120.61 427.96h-11.48v-40.88h11.48c6.94 0 11.98 2.74 11.98 20.55 0 15.62-4.59 20.33-11.98 20.33Zm-1.68-35h-2.69c-.45 0-.73.22-.73.67v27.72c0 .39.22.62.56.62h2.86c6.1 0 7.28-5.26 7.28-14.34 0-10.25-.62-14.67-7.28-14.67ZM145.2 389.43c0 .56-.34 1.62-.95 2.69l-3.08 5.32h-1.85l1.85-7.11-1.79-.06c-.5 0-.84-.39-.84-.84v-5.04c0-.45.34-.84.84-.84h4.98c.5 0 .84.39.84.84v5.04ZM169.56 427.96h-19.77v-40.94h19.77v5.94h-11.98c-.73 0-1.4.78-1.4 1.46v10.92c0 .67.56 1.4 1.29 1.4h9.86v6.38h-9.8c-.78 0-1.34.67-1.34 1.51v5.54c0 .62.34 1.4 1.29 1.4h12.1v6.38ZM196.16 418.16c0 6.66-3.53 10.81-12.32 10.81-9.46 0-11.98-2.63-11.98-12.32h6.61c0 4.59.5 6.1 5.38 6.1 4.48 0 5.43-1.68 5.43-4.7 0-2.07-.28-3.3-4.31-6.1l-3.75-2.63c-4.7-3.3-9.35-5.71-9.35-12.71 0-5.94 2.97-10.36 12.15-10.36s11.76 2.52 11.76 11.59h-6.5c0-5.04-1.9-5.43-5.43-5.43-3.98 0-5.21 1.57-5.21 4.26 0 1.9.56 3.19 5.71 6.55l4.26 2.8c3.64 2.41 7 5.54 7.45 9.86.06.78.11 1.57.11 2.3ZM221.97 416.48c-.67 10.64-3.53 12.49-11.7 12.49-9.91 0-11.93-3.02-11.93-21.39 0-16.24 2.02-21.34 12.04-21.34 8.34 0 10.86 2.02 11.59 11.82h-6.5c0-4.93-1.74-5.43-5.21-5.43-3.92 0-5.54.67-5.54 14.95s1.68 14.95 5.54 14.95 5.15-1.12 5.15-6.05h6.55ZM251.54 427.96h-6.66l-2.07-9.18c-.06-.45-.39-.62-.78-.62h-9.46c-.34 0-.73.22-.78.5l-2.02 9.35h-6.44l9.41-40.94h9.8l9.02 40.88Zm-14-32.82c-.06-.11-.11-.17-.22-.17s-.22.06-.22.17l-3.92 17.42c0 .17.06.5.5.5h7.28c.39 0 .56-.22.56-.56l-3.98-17.36ZM275.17 427.96h-21.06v-40.88h6.83v33.32c0 1.12.78 1.85 2.02 1.85h12.21v5.71ZM304.74 427.96h-6.66l-2.07-9.18c-.06-.45-.39-.62-.78-.62h-9.46c-.34 0-.73.22-.78.5l-2.02 9.35h-6.44l9.41-40.94h9.8l9.02 40.88Zm-14-32.82c-.06-.11-.11-.17-.22-.17s-.22.06-.22.17l-3.92 17.42c0 .17.06.5.5.5h7.28c.39 0 .56-.22.56-.56l-3.98-17.36Z" class="cls-4"/><path d="M150.95 326.72c-2.02 0-3.7-1.62-3.7-3.7s1.68-3.7 3.7-3.7 3.75 1.62 3.75 3.7-1.68 3.7-3.75 3.7Z" style="fill:#868686"/><path d="M150.64 326.52c-2.02 0-3.7-1.62-3.7-3.7s1.68-3.7 3.7-3.7 3.75 1.62 3.75 3.7-1.68 3.7-3.75 3.7Z" class="cls-2"/><path d="M153.73 360.79h-6.38v-31.92h6.38v31.92Z" style="fill:#1c1e13"/></svg>