<svg xmlns="http://www.w3.org/2000/svg" id="Calque_1" data-name="Calque 1" viewBox="0 0 628 190"><defs><style>.cls-2{fill:#fedc0b}.cls-5{fill:#191919}</style></defs><path d="M99.88 72.51c-11.35.95-29.88 22.88-11.91 50.11-.38 2.46-13.24 36.68-24.2 43.87-3.97 4.16 44.25 20.04 59.94 7.37 3.59-34.04-5.86-38.95 34.98-39.9 7.19-.57 30.63-36.87-.76-36.5-15.88-.38-32.52-32.71-58.05-24.96Z" style="fill:#ffd631"/><g id="contours_logo" data-name="contours logo"><path d="M153.54 25.15c37.37 29.44 45.38 86.24 13.71 122.71-10.87 12.91-25.08 21.41-40.43 25.62.84-8.91.55-17.78 1.5-26.59.33-2.3.74-5.66 2.18-7.33 3.17-.97 8.19-.81 11.46-1.01 4.25-.17 8.53-.47 12.84-1.18 10.45-1.64 17.38-5.71 20.04-16.48 1.09-4.47 2.52-8.35 2.48-13.09.1-5.23-3.47-10.16-8.38-11.8-6.73-2.39-12.57-1.51-18.79-3.51-1.45-.45-3.6-1.15-4.49-2.15-1.91-2.65-5.2-6.53-8.13-9.11-6.09-5.63-13.83-9.8-22.14-10.81-3.98-.53-8.02-.32-11.9.38-3.19-.85-6.42-1.55-9.68-2.11-7.99-1.18-21.97-3.07-29.7.56a38.13 38.13 0 0 0-3.85-.63c-7.76-.8-16.18.93-21.84 6.76-5.3 5.11-6.8 14.57.63 18.72 1.11.59 2.17.98 3.21 1.28-2.21 4.26-2.29 9.27-1.74 13.95.24 1.11.34 2.47.78 3.63-.23-.04-.46-.06-.68-.04-1.08.09-1.76.9-2.45 1.58-2.71 2.74-3.01 8.11.41 10.49 1.31.97 2.7 1.33 4.01 1.41-.37 1.54-1.13 2.99-.67 5.08.14.96 1.02 2.28 1.53 2.83.04.22.07.6.06.93l-.04.5c0 .05-.01.11-.01.1 0 .02.02-.11.22-.35l-.18 2.36c.97 2 1.96 4.35 3.66 6.51 4.44 5.89 12.56 6.52 19.27 4.55.64 3.01 1.16 6.07 1.33 9.14.08.95.07 1.89.03 2.85-1.65 2.04-3.47 3.92-5.53 5.56-5.12-2.69-10.02-5.9-14.57-9.65C1.03 119.68 2.86 46.04 56.16 15.95c29.37-16.7 67.68-13.16 94.53 6.97C113.42-5.29 57.46-1.72 26.73 34.89c-33.45 38.64-25.07 98.79 14.5 129.95 39.15 31.94 99.25 27.25 130.01-13.77 29.92-38.85 20.18-96.17-17.71-125.92Zm-50.87 49.17c4.45 1.74 10.46 5.85 13.06 10.56 5.89 9.72 3.25 23.09-3.66 31.54-2.85 3.43-6.55 6.28-11.01 6.08-22.33-1.01-23.59-27.13-12.79-41.78 3.04-4.06 6.79-6.85 11.41-7.19 1 .25 2 .51 2.99.78Zm-60.15 51.59c.07-.04.12-.08.13.07l-.13-.07Zm41.47 12.72c.74-1.9 1.49-3.54.61-5.7l-.73-.29c-1.86 1.22-2.35 2.97-3.08 4.64-.71 1.67-1.44 3.33-2.21 4.97-2.31 4.69-4.65 9.6-7.52 14.09.21-.85.37-1.7.49-2.55.42-2.73.4-5.5.19-8.24l-.03-.54c-.02-.21 0-.28 0-.34.07-1.9-1.85-3.4-3.68-2.84-4.24.98-8.27 3.63-12.69 2.82-4.01-.79-6.17-4.37-7.79-7.9.34-1.18.19-2.4-.13-3.7-.12-.49-.6-1.3-.98-1.58-1.13-.88-1.2-1.59-.9-3.28.28-1.36.52-3.38-.57-4.63-.19-.29-.64-.39-.95-.5-1.14-.14-2.23-.43-2.98-.98-1.77-1.18-1.45-3.81-.27-5.43.69-.9 1.6-1.73 2.59-1.48.8.1 1.11-.83.83-1.41-.05-.11-.12-.17-.09-.28.04-.62.51-1.43.29-2.01-.38-2.59-.26-5.38.12-7.97.36-2.52.77-4.94 1.79-7.14.01-.03.03-.05.04-.08.54.11 1.09.22 1.66.35 3.57.68 7.21 1.35 10.88 1.57 2.27-.08 4.42-1.55 6.37-2.57.03-.03.1 0 .38.19l-.55-.55c-.95.7-2.66.55-3.85.55-4.24-.26-8.42-1.2-12.56-2.18-.82-.23-1.69-.43-2.56-.64-.05-.18-.12-.36-.33-.39-.38-.07-.73-.04-1.05.05-1.42-.37-2.8-.8-4-1.48-5.15-2.97-3.41-9.75.34-13.22 1.89-1.89 4.26-3.29 6.8-4.23 5.11-1.88 10.79-1.85 16.18-.77.41.08.86-.02 1.21-.3.94-.66 2.49-1.14 3.99-1.43 8.21-1.36 16.64-.61 24.83 1.05-9.91 4.79-14.85 19.5-15.06 29.85-.45 8.44 1.91 17.65 9.13 22.95 10.38 7.03 21.54 5.51 29.13-4.42 8.2-10.73 10.08-26.83 2.21-38.2-2.59-3.87-6.2-6.88-10.24-9.1 13.67.05 24.63 8.55 32.28 20.12 2.11 2.47 4.38 3.18 7.03 4.14 4.15 1.38 8.75 1.96 12.89 2.51 8.02 1.17 11.33 4.24 9.24 12.37-2.8 11.68-3.71 16.72-16.95 18.7-3.91.6-7.97.89-12.1 1.13-4.21.26-9.66.16-13.68 1.65-6.43 3.27-5.74 16.11-6.15 22.19-.17 6.17-.23 12.22-.77 18.08-.23.23-.62.56-1.18.84h-.01c-18.1 3.38-37.31 1.04-54.27-6.96 9.04-7.01 14.39-19.33 18.4-29.5Z" class="cls-5"/><path d="M150.69 22.92c.96.73 1.92 1.46 2.86 2.23a75.76 75.76 0 0 0-2.86-2.23Z" class="cls-5"/></g><path id="fond_texte" d="M445.28 43.79h176.79v34.8H445.28z" class="cls-2" data-name="fond texte"/><path d="M229.71 81.76h-21.06V40.88h6.83V74.2c0 1.12.78 1.85 2.02 1.85h12.21v5.71ZM252.11 81.76h-19.77V40.82h19.77v5.82h-11.98c-.73 0-1.4.78-1.4 1.46v11.03c0 .67.56 1.4 1.29 1.4h9.86v6.38h-9.8c-.78 0-1.34.67-1.34 1.51v5.54c0 .62.34 1.4 1.29 1.4h12.1v6.38ZM278.71 71.96c0 6.66-3.53 10.81-12.32 10.81-9.46 0-11.98-2.63-11.98-12.32h6.61c0 4.59.5 6.1 5.38 6.1 4.48 0 5.43-1.68 5.43-4.7 0-2.07-.28-3.3-4.31-6.1l-3.75-2.63c-4.7-3.3-9.35-5.71-9.35-12.71 0-5.94 2.97-10.36 12.15-10.36s11.76 2.52 11.76 11.59h-6.5c0-5.04-1.9-5.43-5.43-5.43-3.98 0-5.21 1.57-5.21 4.26 0 1.9.56 3.19 5.71 6.55l4.26 2.8c3.64 2.41 7 5.54 7.45 9.86.06.78.11 1.57.11 2.3ZM319.64 70.28c-.67 10.64-3.53 12.49-11.7 12.49-9.91 0-11.93-3.02-11.93-21.39 0-16.24 2.02-21.34 12.04-21.34 8.34 0 10.86 2.02 11.59 11.82h-6.5c0-4.93-1.74-5.43-5.21-5.43-3.92 0-5.54.67-5.54 14.95s1.68 14.95 5.54 14.95 5.15-1.12 5.15-6.05h6.55ZM345.51 81.76h-6.38V68.04c0-.67-.22-1.12-1.01-1.12h-7.34c-.5 0-1.01.56-1.01 1.12v13.72h-6.89V40.88h6.89v18.76c0 .56.39 1.06.9 1.06h7.45c.62 0 1.01-.34 1.01-1.18V40.87h6.38v40.88ZM352.96 47.48c-2.02 0-3.7-1.62-3.7-3.7s1.68-3.7 3.7-3.7 3.75 1.62 3.75 3.7-1.68 3.7-3.75 3.7Zm3.19 34.27h-6.38V49.83h6.38v31.92ZM380.51 81.76h-19.77V40.82h19.77v5.82h-11.98c-.73 0-1.4.78-1.4 1.46v11.03c0 .67.56 1.4 1.29 1.4h9.86v6.38h-9.8c-.78 0-1.34.67-1.34 1.51v5.54c0 .62.34 1.4 1.29 1.4h12.1v6.38ZM407.51 81.76h-6.38l-10.53-24.3c-.06-.11-.17-.17-.22-.17-.11 0-.22.06-.22.22v24.25h-6.38V40.88h6.38l10.53 24.58c.06.11.17.22.28.22.06 0 .17-.11.17-.22V40.88h6.38v40.88ZM435.11 71.96c0 6.66-3.53 10.81-12.32 10.81-9.46 0-11.98-2.63-11.98-12.32h6.61c0 4.59.5 6.1 5.38 6.1 4.48 0 5.43-1.68 5.43-4.7 0-2.07-.28-3.3-4.31-6.1l-3.75-2.63c-4.7-3.3-9.35-5.71-9.35-12.71 0-5.94 2.97-10.36 12.15-10.36s11.76 2.52 11.76 11.59h-6.5c0-5.04-1.9-5.43-5.43-5.43-3.98 0-5.21 1.57-5.21 4.26 0 1.9.56 3.19 5.71 6.55l4.26 2.8c3.64 2.41 7 5.54 7.45 9.86.06.78.11 1.57.11 2.3ZM475.88 70.61c0 8.29-2.69 12.15-12.15 12.15s-11.93-3.14-11.93-13.55v-.56h6.38v.45c0 5.71 1.74 7.22 5.77 7.22 4.26 0 5.38-2.24 5.38-5.77V40.81h6.55V70.6ZM506.29 81.76h-6.66l-2.07-9.18c-.06-.45-.39-.62-.78-.62h-9.46c-.34 0-.73.22-.78.5l-2.02 9.35h-6.44l9.41-40.94h9.8l9.02 40.88Zm-14-32.82c-.06-.11-.11-.17-.22-.17s-.22.06-.22.17l-3.92 17.42c0 .17.06.5.5.5h7.28c.39 0 .56-.22.56-.56l-3.98-17.36ZM531.77 62.66c0 17.58-2.24 20.1-12.04 20.1s-11.93-2.91-11.93-20.1V40.82h6.38v21.95c0 12.49 1.57 13.55 5.54 13.55s5.6-.84 5.6-13.55V40.82h6.44v21.84ZM559.21 81.76h-6.38l-10.53-24.3c-.06-.11-.17-.17-.22-.17-.11 0-.22.06-.22.22v24.25h-6.38V40.88h6.38l10.53 24.58c.06.11.17.22.28.22.06 0 .17-.11.17-.22V40.88h6.38v40.88ZM582.89 81.76h-19.77V40.82h19.77v5.82h-11.98c-.73 0-1.4.78-1.4 1.46v11.03c0 .67.56 1.4 1.29 1.4h9.86v6.38h-9.8c-.78 0-1.34.67-1.34 1.51v5.54c0 .62.34 1.4 1.29 1.4h12.1v6.38ZM609.49 71.96c0 6.66-3.53 10.81-12.32 10.81-9.46 0-11.98-2.63-11.98-12.32h6.61c0 4.59.5 6.1 5.38 6.1 4.48 0 5.43-1.68 5.43-4.7 0-2.07-.28-3.3-4.31-6.1l-3.75-2.63c-4.7-3.3-9.35-5.71-9.35-12.71 0-5.94 2.97-10.36 12.15-10.36s11.76 2.52 11.76 11.59h-6.5c0-5.04-1.9-5.43-5.43-5.43-3.98 0-5.21 1.57-5.21 4.26 0 1.9.56 3.19 5.71 6.55l4.26 2.8c3.64 2.41 7 5.54 7.45 9.86.06.78.11 1.57.11 2.3ZM219.96 148.96h-11.48v-40.88h11.48c6.94 0 11.98 2.74 11.98 20.55 0 15.62-4.59 20.33-11.98 20.33Zm-1.68-35h-2.69c-.45 0-.73.22-.73.67v27.72c0 .39.22.62.56.62h2.86c6.1 0 7.28-5.26 7.28-14.34 0-10.25-.62-14.67-7.28-14.67ZM244.55 110.43c0 .56-.34 1.62-.95 2.69l-3.08 5.32h-1.85l1.85-7.11-1.79-.06c-.5 0-.84-.39-.84-.84v-5.04c0-.45.34-.84.84-.84h4.98c.5 0 .84.39.84.84v5.04ZM268.91 148.96h-19.77v-40.94h19.77v5.94h-11.98c-.73 0-1.4.78-1.4 1.46v10.92c0 .67.56 1.4 1.29 1.4h9.86v6.38h-9.8c-.78 0-1.34.67-1.34 1.51v5.54c0 .62.34 1.4 1.29 1.4h12.1v6.38ZM295.51 139.16c0 6.66-3.53 10.81-12.32 10.81-9.46 0-11.98-2.63-11.98-12.32h6.61c0 4.59.5 6.1 5.38 6.1 4.48 0 5.43-1.68 5.43-4.7 0-2.07-.28-3.3-4.31-6.1l-3.75-2.63c-4.7-3.3-9.35-5.71-9.35-12.71 0-5.94 2.97-10.36 12.15-10.36s11.76 2.52 11.76 11.59h-6.5c0-5.04-1.9-5.43-5.43-5.43-3.98 0-5.21 1.57-5.21 4.26 0 1.9.56 3.19 5.71 6.55l4.26 2.8c3.64 2.41 7 5.54 7.45 9.86.06.78.11 1.57.11 2.3ZM321.32 137.48c-.67 10.64-3.53 12.49-11.7 12.49-9.91 0-11.93-3.02-11.93-21.39 0-16.24 2.02-21.34 12.04-21.34 8.34 0 10.86 2.02 11.59 11.82h-6.5c0-4.93-1.74-5.43-5.21-5.43-3.92 0-5.54.67-5.54 14.95s1.68 14.95 5.54 14.95 5.15-1.12 5.15-6.05h6.55ZM350.89 148.96h-6.66l-2.07-9.18c-.06-.45-.39-.62-.78-.62h-9.46c-.34 0-.73.22-.78.5l-2.02 9.35h-6.44l9.41-40.94h9.8l9.02 40.88Zm-14-32.82c-.06-.11-.11-.17-.22-.17s-.22.06-.22.17l-3.92 17.42c0 .17.06.5.5.5h7.28c.39 0 .56-.22.56-.56l-3.98-17.36ZM374.52 148.96h-21.06v-40.88h6.83v33.32c0 1.12.78 1.85 2.02 1.85h12.21v5.71ZM404.09 148.96h-6.66l-2.07-9.18c-.06-.45-.39-.62-.78-.62h-9.46c-.34 0-.73.22-.78.5l-2.02 9.35h-6.44l9.41-40.94h9.8l9.02 40.88Zm-14-32.82c-.06-.11-.11-.17-.22-.17s-.22.06-.22.17l-3.92 17.42c0 .17.06.5.5.5h7.28c.39 0 .56-.22.56-.56l-3.98-17.36Z" class="cls-5"/><path d="M353.31 47.72c-2.02 0-3.7-1.62-3.7-3.7s1.68-3.7 3.7-3.7 3.75 1.62 3.75 3.7-1.68 3.7-3.75 3.7Z" style="fill:#868686"/><path d="M353 47.52c-2.02 0-3.7-1.62-3.7-3.7s1.68-3.7 3.7-3.7 3.75 1.62 3.75 3.7-1.68 3.7-3.75 3.7Z" class="cls-2"/><path d="M356.1 81.79h-6.38V49.87h6.38v31.92Z" style="fill:#1c1e13"/></svg>