<svg xmlns="http://www.w3.org/2000/svg" data-name="L’association" viewBox="0 0 30 30"><path d="M15.33 13.19c-.16-.42-.25-.55-.41-.82-.52-.86-1.26-1.55-2.22-2.09-.96-.54-2.09-.8-3.4-.8s-2.52.36-3.62 1.09c-1.1.72-1.99 1.85-2.66 3.38-.67 1.52-1 3.49-1 5.89 0 1.29.12 2.53.37 3.74.24 1.21.63 2.3 1.18 3.27.54.97 1.25 1.74 2.13 2.31.88.57 1.96.86 3.23.86.91 0 1.78-.13 2.61-.39s2.61-1.13 2.6-1.27c-.07-.99-1.01-2.5-2.03-1.75-.09.06-.19.1-.29.14-.78.38-1.59.57-2.42.57-1.37 0-2.45-.65-3.23-1.94C5.39 24.09 5 22.24 5 19.85c0-2.57.36-4.52 1.07-5.85.71-1.34 1.55-2.07 3.17-2 .95.04 1.7.24 2.24.72s.91.91 1.14 1.8c.39 1.5 3.09-.34 2.72-1.31ZM12.18 1.36c-2.45-2.39-6.6-.65-6.6 2.77 0 1.58.89 2.8 2.08 3.42 1.08.56 2.41.63 3.56.03.16-.08.33-.18.48-.3.16-.12.32-.24.47-.39.7-.66 1.08-1.54 1.16-2.44.1-1.12-.29-2.28-1.16-3.1Zm-1.34 4.61c-1.25 1.34-3.54.02-3.53-1.82 0-1.83 2.28-2.76 3.53-1.43.74.77.74 2.47 0 3.24ZM16.86 9.57a3.6 3.6 0 0 0 1.12 2.34c.14.14.29.26.45.38.15.11.31.2.47.29 1.11.57 2.39.51 3.43-.03 1.15-.6 2.01-1.77 2.01-3.3 0-3.29-3.99-4.96-6.35-2.67-.84.79-1.21 1.91-1.12 2.99Zm2.38-1.71c1.23-1.32 3.49-.4 3.48 1.41 0 1.81-2.25 3.11-3.48 1.79-.73-.76-.73-2.43 0-3.19Z"/><path d="M14.32 22.02c0 .26.01.76.01 1.03 0 .39.02 1.38.02 1.75-.01 3.15 2.49 4.25 5.65 4.2 5 0 6.74-2.05 6.82-5.65 0-.26.01-.75.01-1.02 0-.39.02-1.38.02-1.75.07-2.67-1.78-5.04-4.24-5.78-.53-.16-3.71-.25-4.28-.25-.84-.06-1.78-.31-2.26-.02-.73.45-.43 1.94.49 2.4.16.08 1.25.06 1.3.06.84-.02 4-.13 4.8.32 1.5.77 1.71 2.23 1.62 3.86 0 .61.03 1.59.03 2.19.04 1.6-.61 3.13-2.13 3.63-.67.24-1.24.22-2 .22-2.07.02-3.56-.82-3.58-2.35-.01-.76-.03-1.68-.08-2.47-.04-.67-2-1.02-2.22-.49-.02.04 0 .09 0 .14Z"/></svg>