<svg xmlns="http://www.w3.org/2000/svg" data-name="Nos projets" viewBox="0 0 30 30"><path d="M4.59 15.25c1.95-1.27 4.48.43 5.17 2.34.34.88-.85 1.59-1.46.89-.81-.86-1.79-1.98-3.05-1.7-.88.18-1.38-1.03-.65-1.53ZM11.59 18.25c1.6-1.24 4.46-.68 5.17 1.34.33.84-.82 1.56-1.43.91-.39-.41-.81-.71-1.34-.82-.51-.13-1.1-.07-1.67.09-.9.25-1.47-.99-.73-1.52ZM7.61 23.74c.89.91 2.94 1.34 3.95.25.72-.54.3-2.03 1.47-1.93 1.49.36.16 2.43-.56 3.05-1.56 1.4-5.29 1.4-6.09-.84-.14-.57.56-1.02 1.02-.67l.21.15Z"/><path d="M29.76 6.94C29.15 2.79 24.75.35 20.88.19 17.1.11 13.03 2.04 11.1 5.44c-.73 1.41-.85 3.03-.63 4.55-4.06-.07-8 2.41-9.42 7.36-2.41 8.75 5.66 14.99 13.8 11.27 3.96-1.53 6.24-5.81 5.72-9.86 6.29.63 10.48-5.95 9.19-11.82ZM7.62 28.08C3.19 27.05.79 21.9 2.17 17.68c2.3-7.46 11.38-8.1 15.36-1.65 4.18 6.41-3.33 13.57-9.91 12.06Zm19.96-15.89c-.97 3.24-4.05 5.09-7.35 5.09-.25-.78-.59-1.55-1.08-2.26-1.76-2.68-4.24-4.26-6.82-4.81C10.86 6.1 14.4 2.8 18.32 1.9c3.14-.69 6.91.49 8.75 3.18 1.28 2.06 1.23 4.83.51 7.1Z"/><path d="M18.85 7.05c-.01 2.01-1.79 4.03-3.9 3.81-.53-.03-.95-.49-.85-1.02.08-.45.51-.76.96-.7.33.04.93-.25 1.34-.69.42-.44.73-1.06.75-1.5.08-1.13 1.75-1.02 1.7.11ZM26.45 7.73c-1.63 1.2-4.12.47-5.13-1.19-.32-.43-.24-1.05.24-1.32.38-.22.87-.1 1.12.24.31.43.82.79 1.38.96.56.15 1.16.09 1.5-.15.99-.63 1.89.83.89 1.45ZM24.53 13.47c-.91-.63-2.38-1.44-3.26-.3-.51.55-.21 1.91-1.32 1.79-1.38-.33-.29-2.12.31-2.82 1.35-1.43 4.11-1.26 5.21.38.33.59-.37 1.27-.95.95Z"/></svg>